<?xml version="1.0" encoding="utf-8" ?>
<svg baseProfile="full" height="200mm" version="1.1" viewBox="0,0,200,200" width="200mm" xmlns="http://www.w3.org/2000/svg" xmlns:ev="http://www.w3.org/2001/xml-events" xmlns:xlink="http://www.w3.org/1999/xlink"><defs /><rect fill="#1a1a1a" height="200" width="200" x="0" y="0" /><text alignment-baseline="middle" fill="#e1ed5e" style="dominant-baseline: central; font-size:9.0px; font-family:Arial;" text-anchor="middle" x="100.0" y="100.0">2022</text><line stroke="#e1ed5e" stroke-width="0.3" x1="100.0" x2="100.0" y1="15.0" y2="10.0" /><path d="M 100.0 14.0 a86.0,86.0 0 0,1 42.46469731375804,11.215312516191453" fill="none" id="id61" stroke="none" /><text fill="#e1ed5e" style="font-size:6.75px; font-family:Arial;" text-anchor="middle"><textPath startOffset="22.20632615414155" xlink:href="#id61">January</textPath></text><line stroke="#e1ed5e" stroke-width="0.3" x1="143.23703022742887" x2="145.7803849466894" y1="26.81831364943548" y2="22.513508569990506" /><path d="M 143.74570117128098 25.957352633546492 a86.0,86.0 0 0,1 28.547481713284135,27.462654790039103" fill="none" id="id62" stroke="none" /><text fill="#e1ed5e" style="font-size:6.75px; font-family:Arial;" text-anchor="middle"><textPath startOffset="19.985693538727396" xlink:href="#id62">February</textPath></text><path d="M 113.34407831869373 83.78471172551755 l 14.687595507614695 -17.847886495189567 a44.114335684602175,44.114335684602175 0 0,0 0.5821883641449023,0.48756601213031897 l -14.992641408718715 17.59241932566543" fill="red" stroke="none" /><path d="M 117.45458315368197 88.32363383020206 l 15.504606694635546 -10.371915702098912 a39.65393963983971,39.65393963983971 0 0,0 0.37464166885037875,0.5706049643466296 l -15.68084499884385 10.103492673774607" fill="red" stroke="none" /><line stroke="#e1ed5e" stroke-width="0.3" x1="172.23445277983987" x2="176.4835382374775" y1="55.19839476539836" y2="52.563006222186495" /><path d="M 173.08426987136738 54.67131705675599 a86.0,86.0 0 0,1 12.851231095245387,41.99856678651699" fill="none" id="id63" stroke="none" /><text fill="#e1ed5e" style="font-size:6.75px; font-family:Arial;" text-anchor="middle"><textPath startOffset="22.20632615414155" xlink:href="#id63">March</textPath></text><path d="M 117.84615892207809 88.93136811851018 l 15.602339017585273 -9.676958937209067 a39.35964370820126,39.35964370820126 0 0,0 0.3521454875168592,0.5788345910561753 l -15.766600303388355 9.406956572945811" fill="red" stroke="none" /><path d="M 118.03404312379186 89.2402003453031 l 15.84687059471008 -9.454848897862481 a39.453115599456325,39.453115599456325 0 0,0 0.3429421221278365,0.5861992530386696 l -16.00727239130824 9.180670232469916" fill="red" stroke="none" /><path d="M 118.21658344932153 89.55222093294921 l 16.523747612606318 -9.47688488878789 a40.04850604011898,40.04850604011898 0 0,0 0.3378231820314724,0.6009497455103571 l -16.684428435930222 9.191051633342738" fill="red" stroke="none" /><path d="M 118.3937258080291 89.86733742301442 l 16.447739113171224 -9.060665159817876 a39.778279342721476,39.778279342721476 0 0,0 0.32521944715098694,0.6025822432968251 l -16.601266659540677 8.776201933188593" fill="red" stroke="none" /><path d="M 118.56541770881063 90.18545643968196 l 16.29270370377211 -8.613081198821604 a39.4292528800384,39.4292528800384 0 0,0 0.3120366612479379,0.6027555102565326 l -16.438549798180162 8.331352966304726" fill="red" stroke="none" /><path d="M 118.73160827565052 90.50648371742162 l 16.33630250871987 -8.279532199339265 a39.31462347678223,39.31462347678223 0 0,0 0.30073812409771117,0.606269706891905 l -16.47640064577099 7.99710290394841" fill="red" stroke="none" /><path d="M 118.89224826269711 90.83032412892265 l 23.14532000119126 -11.233976993746534 a46.72757425513666,46.72757425513666 0 0,0 0.34498702428142103,0.7266306557968907 l -23.335265219314437 10.833903922309103" fill="red" stroke="none" /><path d="M 119.04729006885535 91.15688171328212 l 16.668670898811104 -7.7387926527973985 a39.377527071286366,39.377527071286366 0 0,0 0.2801386337220602,0.6172483456234923 l -16.79941184949651 7.4507222983318435" fill="red" stroke="none" /><path d="M 119.196687751892 91.48605970444005 l 17.158694559200946 -7.610068096898008 a39.770560338343046,39.770560338343046 0 0,0 0.2721618569229578,0.6281870897380246 l -17.287147125966584 7.31358186257338" fill="red" stroke="none" /><path d="M 119.34039704204932 91.81776055985345 l 16.642452949501884 -7.040834508626436 a39.07054483833426,39.07054483833426 0 0,0 0.2567089461538356,0.6216410750824721 l -16.761183582541918 6.753318863090661" fill="red" stroke="none" /><path d="M 120.45610955862082 95.25157060432595 l 13.755178736849544 -3.1929578236581713 a35.12090371563866,35.12090371563866 0 0,0 0.13162915504675032,0.5900676921910051 l -13.808102278898332 2.955711961917202" fill="red" stroke="none" /><path d="M 120.96714384426684 98.82574320788733 l 14.538136716191971 -0.8142027312088544 a35.56091842110919,35.56091842110919 0 0,0 0.0289675715280079,0.6114596514356239 l -14.549997895953476 0.5638319731502308" fill="red" stroke="none" /><line stroke="#e1ed5e" stroke-width="0.3" x1="184.98032266829074" x2="189.97916517819016" y1="98.17113171792111" y2="98.06355123074" /><path d="M 185.9800911702706 98.14961562048488 a86.0,86.0 0 0,1 -9.607161424134198,41.387399972396054" fill="none" id="id64" stroke="none" /><text fill="#e1ed5e" style="font-size:6.75px; font-family:Arial;" text-anchor="middle"><textPath startOffset="21.466115282336823" xlink:href="#id64">April</textPath></text><path d="M 120.99980553446 99.90962569577887 l 15.444077595761204 -0.06646479486506128 a36.44422061331842,36.44422061331842 0 0,0 -0.0026998272757185536,0.6273447774270717 l -15.442933471195982 -0.19938946076569514" fill="red" stroke="none" /><line stroke="#e1ed5e" stroke-width="0.3" x1="174.80103733775053" x2="179.2010983576182" y1="140.37084112569926" y2="142.7455964860345" /><path d="M 175.68104954172406 140.8457921977663 a86.0,86.0 0 0,1 -30.038265399797805,32.042727171017184" fill="none" id="id65" stroke="none" /><text fill="#e1ed5e" style="font-size:6.75px; font-family:Arial;" text-anchor="middle"><textPath startOffset="22.206326154141568" xlink:href="#id65">May</textPath></text><path d="M 117.75023020441432 111.22182372390056 l 19.799058325600384 12.517107658347916 a44.42393422786185,44.42393422786185 0 0,0 -0.4141900129272924,0.6428320980170126 l -19.58066344929604 -12.856061356286382" fill="red" stroke="none" /><path d="M 117.14729908036423 112.12312394758627 l 17.492597355730737 12.36724949596196 a42.42288081339878,42.42288081339878 0 0,0 -0.42669379492529264,0.5926403614572944 l -17.277123768429842 -12.666523462870387" fill="red" stroke="none" /><path d="M 116.498646956653 112.99209946851258 l 17.825098059020497 14.03663267825723 a43.68834894297104,43.68834894297104 0 0,0 -0.4703406260906194,0.5868222492253905 l -17.580839520875024 -14.34138276106087" fill="red" stroke="none" /><path d="M 116.0416608686014 113.55231037782055 l 15.886894476458044 13.421560688024554 a41.79739664978382,41.79739664978382 0 0,0 -0.4690414095696569,0.5456011246254749 l -15.653510557317608 -13.693038911811557" fill="red" stroke="none" /><path d="M 115.56566222782051 114.09645910891815 l 18.611025763823783 16.854378555501917 a46.10857137460982,46.10857137460982 0 0,0 -0.5378314371617289,0.5837098020401482 l -18.318147918666334 -17.1722396123434" fill="red" stroke="none" /><path d="M 112.92097659922987 116.55440617244103 l 11.48510066349915 14.714756261246466 a39.66632232333409,39.66632232333409 0 0,0 -0.5418632533753222,0.4154776364537236 l -11.230108681630334 -14.91027323952756" fill="red" stroke="none" /><line stroke="#e1ed5e" stroke-width="0.3" x1="143.8653032363475" x2="146.44561519142675" y1="172.8068346515853" y2="177.08958963109032" /><path d="M 144.38136562736335 173.6633856474863 a86.0,86.0 0 0,1 -40.68145358897372,12.25698825130547" fill="none" id="id66" stroke="none" /><text fill="#e1ed5e" style="font-size:6.75px; font-family:Arial;" text-anchor="middle"><textPath startOffset="21.466115282336833" xlink:href="#id66">June</textPath></text><line stroke="#e1ed5e" stroke-width="0.3" x1="102.19456741930631" x2="102.32365962044197" y1="184.97166512339345" y2="189.96999836594603" /><path d="M 102.22038585953345 185.97133177190398 a86.0,86.0 0 0,1 -42.740103519485714,-10.115201625700543" fill="none" id="id67" stroke="none" /><text fill="#e1ed5e" style="font-size:6.75px; font-family:Arial;" text-anchor="middle"><textPath startOffset="22.20632615414155" xlink:href="#id67">July</textPath></text><path d="M 94.46302465271185 120.25689768951611 l -5.154733026871388 18.858472901318724 a40.55027551591259,40.55027551591259 0 0,0 -0.6717227131788851,-0.18983554840117997 l 5.478586908154887 -18.76694855957902" fill="red" stroke="none" /><path d="M 94.11515582081647 120.15858648285463 l -4.001792002302344 13.70817437276649 a35.28034957078653,35.28034957078653 0 0,0 -0.5814958046164547,-0.17519991584811648 l 4.237162781359045 -13.637259087812646" fill="red" stroke="none" /><path d="M 93.76903079525671 120.05430185196036 l -18.692907614229874 60.16290555588108 a84.0,84.0 0 0,0 -1.3771146196362385,-0.4409086133611737 l 19.725743578957054 -59.832224095860205" fill="red" stroke="none" /><path d="M 91.7346041902142 119.30500536409082 l -6.142938167139903 14.347704211274475 a36.60744391178541,36.60744391178541 0 0,0 -0.5771413253723056,-0.25300179642310766 l 6.389000167169951 -14.239837861556914" fill="red" stroke="none" /><line stroke="#e1ed5e" stroke-width="0.3" x1="58.666819895761336" x2="56.23545636021788" y1="174.27360380694188" y2="178.64263932499728" /><path d="M 58.180547188652646 175.14741091055294 a86.0,86.0 0 0,1 -31.652253787137756,-30.449443065178592" fill="none" id="id68" stroke="none" /><text fill="#e1ed5e" style="font-size:6.75px; font-family:Arial;" text-anchor="middle"><textPath startOffset="22.20632615414155" xlink:href="#id68">August</textPath></text><path d="M 88.24862548938628 117.40417183066458 l -7.78801101718082 11.534300250553848 a34.91737036489496,34.91737036489496 0 0,0 -0.4952332557265086,-0.34062594906660915 l 7.9854011575302195 -11.398533512122137" fill="red" stroke="none" /><path d="M 87.95078237400918 117.19931262002967 l -15.608178449508442 22.279449912436196 a48.20274109189096,48.20274109189096 0 0,0 -0.6754642583866197,-0.48192581367047377 l 15.98937003574395 -22.0074798369215" fill="red" stroke="none" /><path d="M 87.65650970185807 116.9893568818739 l -20.227994678910893 27.841446163440065 a55.41392004991263,55.41392004991263 0 0,0 -0.7668627625966035,-0.5673067386695803 l 20.70424241192606 -27.489129476030715" fill="red" stroke="none" /><path d="M 87.07902340077011 116.55440617244103 l -10.894845741509743 13.958519327539953 a38.70700216153484,38.70700216153484 0 0,0 -0.5217012829140696,-0.41447105126948985 l 11.13350451714117 -13.768914362265333" fill="red" stroke="none" /><path d="M 85.18274418774928 114.88116024355367 l -10.319984089013744 10.364492513692387 a35.62616753164965,35.62616753164965 0 0,0 -0.4308380589526,-0.43643667907401296 l 10.496862773021876 -10.18531534063771" fill="red" stroke="none" /><path d="M 83.95833913139862 113.55231037782056 l -16.863616255275385 14.246714442846699 a43.07601471328566,43.07601471328566 0 0,0 -0.47363924314012096,-0.5705289800429715 l 17.106351498309042 -13.954324205689966" fill="red" stroke="none" /><path d="M 83.28015986056508 112.70617746262583 l -12.94091298638295 9.834396475212845 a37.253694440120796,37.253694440120796 0 0,0 -0.38360436650762253,-0.5139007366666045 l 13.108278619585656 -9.610182859036932" fill="red" stroke="none" /><path d="M 83.06392112726016 112.41649034213515 l -16.165028184920022 11.851203448365347 a41.04393073710357,41.04393073710357 0 0,0 -0.4128241700958192,-0.573376665640823 l 16.36663214739145 -11.571193177273386" fill="red" stroke="none" /><path d="M 82.85270091963577 112.12312394758628 l -13.4775198034119 9.528593530506063 a37.50568492129187,37.50568492129187 0 0,0 -0.36816132694942577,-0.5303638502399252 l 13.639542037523459 -9.295188418079126" fill="red" stroke="none" /><path d="M 82.44556493220864 111.52570212397912 l -14.703596404188373 9.653929143913352 a38.58960190376578,38.58960190376578 0 0,0 -0.3597931608082495,-0.558406975532599 l 14.867594428373668 -9.399400568459304" fill="red" stroke="none" /><path d="M 82.05923443525364 110.91462005526583 l -14.60901576203376 8.887684076164033 a38.10012484670947,38.10012484670947 0 0,0 -0.3360415123759793,-0.563224903813821 l 14.75983815010797 -8.634897078464101" fill="red" stroke="none" /><line stroke="#e1ed5e" stroke-width="0.3" x1="26.63291911575756" x2="22.317208475507996" y1="142.92168965132927" y2="145.44649492493687" /><path d="M 25.769776987707644 143.4266507060508 a86.0,86.0 0 0,1 -11.730757126820373,-40.83630448921669" fill="none" id="id69" stroke="none" /><text fill="#e1ed5e" style="font-size:6.75px; font-family:Arial;" text-anchor="middle"><textPath startOffset="21.46611528233685" xlink:href="#id69">September</textPath></text><path d="M 81.87401531095188 110.60418214915194 l -15.742762572150111 9.209933954473517 a39.238899551476635,39.238899551476635 0 0,0 -0.3360494170243073,-0.5859304842715454 l 15.898963985326796 -8.937583624343665" fill="red" stroke="none" /><path d="M 81.18737489456691 109.33194174019688 l -16.15096754985956 8.011635132173652 a39.02886713822296,39.02886713822296 0 0,0 -0.2933609321802527,-0.6044104109292227 l 16.28648173865453 -7.732435765279145" fill="red" stroke="none" /><path d="M 81.02952815118164 109.00673069616217 l -21.898897743314887 10.397077947700922 a45.241719250555036,45.241719250555036 0 0,0 -0.3279494308447966,-0.7063738982886751 l 22.074621790999508 -10.01858398213342" fill="red" stroke="none" /><path d="M 80.45479744820244 107.68017299344265 l -17.045517219902756 6.6979362666936835 a39.314256947162555,39.314256947162555 0 0,0 -0.24207420556184497,-0.6319793634679943 l 17.15828570505811 -6.403533336392531" fill="red" stroke="none" /><path d="M 79.97269907076064 106.31721596034903 l -31.645113569198934 9.981825170187511 a54.182074174705946,54.182074174705946 0 0,0 -0.27290537417956623,-0.8918705530181005 l 31.81224571588463 -9.435627644617362" fill="red" stroke="none" /><path d="M 79.86692584326677 105.97154293290107 l -29.556388123955145 8.766532087930477 a51.82907984002428,51.82907984002428 0 0,0 -0.2463297043548765,-0.857506016280566 l 29.702910465196126 -8.256468596145314" fill="red" stroke="none" /><path d="M 79.76711848015287 105.62410040840567 l -23.889578859544468 6.640546483149611 a45.79533899105363,45.79533899105363 0 0,0 -0.20457851644434585,-0.761312764765552 l 24.00034545233059 -6.22834278520852" fill="red" stroke="none" /><path d="M 79.67330655649465 105.27499134158121 l -23.788615874338014 6.173396726530967 a45.57659602874145,45.57659602874145 0 0,0 -0.1905290221080127,-0.7610687334433816 l 23.891356210741087 -5.763000153690194" fill="red" stroke="none" /><path d="M 79.10278846688536 102.07522291339032 l -23.47582805674547 2.331295551895495 a44.591300131619825,44.591300131619825 0 0,0 -0.06927662711067621,-0.7644618074380909 l 23.51247928013322 -1.9268523559088382" fill="red" stroke="none" /><line stroke="#e1ed5e" stroke-width="0.3" x1="15.007084014347285" x2="10.007500721073583" y1="101.09737516637583" y2="101.16192664675087" /><path d="M 14.007167355692545 101.11028546245083 a86.0,86.0 0 0,1 10.666146001902534,-42.60595125391555" fill="none" id="id70" stroke="none" /><text fill="#e1ed5e" style="font-size:6.75px; font-family:Arial;" text-anchor="middle"><textPath startOffset="22.20632615414155" xlink:href="#id70">October</textPath></text><path d="M 79.01574976396665 99.18683210126434 l -18.053978731051156 -0.6996159397364384 a39.06752917485899,39.06752917485899 0 0,0 0.031824021876873956,-0.6717548036534828 l 18.03926110094078 1.0102818500129302" fill="red" stroke="none" /><path d="M 79.3925641242962 95.95851677861259 l -15.977813765239667 -3.133532315041768 a37.282185279810975,37.282185279810975 0 0,0 0.1289265973736904,-0.6286918761432151 l 15.921507871950983 3.4080998473483857" fill="red" stroke="none" /><path d="M 79.46518482838121 95.60439243477599 l -16.371212598325975 -3.5043619992523847 a37.74207737890944,37.74207737890944 0 0,0 0.14145301599636181,-0.634106134562567 l 16.308465195327575 3.785646303364911" fill="red" stroke="none" /><path d="M 80.803312248108 91.48605970444005 l -14.351011307346743 -6.3648299660244 a36.699126919672835,36.699126919672835 0 0,0 0.2610840252984291,-0.5752640417460848 l 14.239324965084963 6.610916016612555" fill="red" stroke="none" /><line stroke="#e1ed5e" stroke-width="0.3" x1="26.266209847984243" x2="21.928928074336255" y1="57.711370442889674" y2="55.22380399835377" /><path d="M 25.398753493254645 57.213857153982495 a86.0,86.0 0 0,1 29.58750427330803,-30.492523968695096" fill="none" id="id71" stroke="none" /><text fill="#e1ed5e" style="font-size:6.75px; font-family:Arial;" text-anchor="middle"><textPath startOffset="21.46611528233685" xlink:href="#id71">November</textPath></text><line stroke="#e1ed5e" stroke-width="0.3" x1="56.762969772571076" x2="54.21961505331055" y1="26.818313649435495" y2="22.513508569990535" /><path d="M 56.25429882871897 25.957352633546506 a86.0,86.0 0 0,1 42.265352541879196,-11.944610805530505" fill="none" id="id72" stroke="none" /><text fill="#e1ed5e" style="font-size:6.75px; font-family:Arial;" text-anchor="middle"><textPath startOffset="22.20632615414155" xlink:href="#id72">December</textPath></text></svg>